<?xml version="1.0" encoding="UTF-8"?>
<svg width="256px" height="256px" viewBox="0 0 256 256" version="1.1" xmlns="http://www.w3.org/2000/svg" xmlns:xlink="http://www.w3.org/1999/xlink">
    <!-- Generator: Sketch 61.2 (89653) - https://sketch.com -->
    <title>icon - 256x256</title>
    <desc>Created with Sketch.</desc>
    <g id="icon---256x256" stroke="none" stroke-width="1" fill="none" fill-rule="evenodd">
        <rect fill="#8758E7" x="0" y="0" width="256" height="256"></rect>
        <path d="M206.513094,197.518251 L168.192202,158.966873 C177.555501,147.168193 183.172641,132.234917 183.172641,115.998021 C183.172641,101.273929 178.5497,87.6235317 170.708278,76.4070512 L187.871763,48.5715182 L192.210597,65.7369101 C192.554112,67.0946723 193.76707,67.9971518 195.099542,67.9971518 C195.342763,67.9971518 195.588779,67.9679715 195.836193,67.9050406 C197.432155,67.496165 198.39735,65.8631236 197.991283,64.2575047 L191.923345,40.2568943 C191.887002,40.1134538 191.795445,40.0058735 191.74093,39.8733317 C191.65077,39.6528975 191.577734,39.4278928 191.436205,39.2327717 C191.263225,38.9937042 191.037127,38.8129974 190.806137,38.6372125 C190.731354,38.5802582 190.686973,38.4986941 190.6059,38.4477165 C190.600658,38.4445523 190.594368,38.4449039 190.589126,38.4413882 C190.281256,38.2515405 189.936693,38.1288427 189.576405,38.0616929 C189.546701,38.0560678 189.519444,38.0353252 189.48974,38.0304032 C189.480654,38.0289969 189.47052,38.0328642 189.461085,38.0314579 C189.076335,37.9748552 188.689488,37.9952462 188.318017,38.0877091 C188.312077,38.0891153 188.306835,38.0870059 188.300894,38.0887638 L164.549482,44.1459586 C162.952123,44.5530763 161.986928,46.185063 162.391597,47.7906819 C162.796266,49.3977071 164.417039,50.3659301 166.014398,49.9616249 L182.605126,45.7308349 L166.812204,71.343744 C154.221688,56.4625007 135.487053,46.9964859 114.586495,46.9964859 C76.7681198,46.9964859 46,77.9507939 46,115.998021 C46,154.045248 76.7681198,184.999556 114.586495,184.999556 C127.667297,184.999556 139.902068,181.291902 150.31478,174.87259 C150.342387,174.902474 150.350774,174.94185 150.379429,174.97103 L189.652237,214.48149 C191.90762,216.750521 194.901401,218 198.08284,218 C201.264279,218 204.25806,216.750521 206.513443,214.48149 C211.162244,209.804207 211.162244,202.195535 206.513094,197.518251 Z" id="Path" fill="#FFFFFF" fill-rule="nonzero"></path>
        <path d="M114.000176,179 C79.2611335,179 51,150.738594 51,116 C51,81.2614062 79.2611335,53 114.000176,53 C133.897263,53 151.63821,62.2960156 163.191993,76.7452344 L144.171354,107.407109 L130.136588,81.5672656 C129.549125,80.4890234 128.3742,79.8811719 127.148298,80.0203906 C125.929428,80.1638281 124.921847,81.0357031 124.602276,82.2204687 L107.792971,144.751836 L89.6319047,111.560117 C89.0504187,110.499453 87.8958842,109.901797 86.6861543,110.016055 C85.4834556,110.141914 84.4741168,110.980039 84.1257174,112.138437 L75.1256923,142.13832 C74.6496754,143.724922 75.550381,145.397656 77.1383932,145.873672 C78.7232414,146.355664 80.396332,145.450391 80.8737552,143.860977 L87.8111574,120.734141 L106.117419,154.189883 C106.648983,155.159492 107.662892,155.749766 108.748169,155.749766 C108.866997,155.749766 108.986881,155.742383 109.105709,155.729375 C110.323173,155.582773 111.329348,154.712656 111.647161,153.529297 L128.447677,91.0302734 L141.363416,114.8075 C141.874589,115.746523 142.845959,116.342773 143.913658,116.373359 C145.0137,116.46582 145.986476,115.865 146.548978,114.956914 L166.974113,82.0302734 C173.289599,91.8444922 177,103.487187 177,116 C177,150.738945 148.738866,179 114.000176,179 Z" id="Path" fill="#8557E6" fill-rule="nonzero"></path>
        <path d="M202.24681,210.301045 C200.008646,212.566318 196.007229,212.566318 193.769065,210.301045 L155,171.062407 C158.2256,168.643436 161.226574,165.939127 163.987809,163 L202.246458,201.720617 C204.584455,204.086933 204.584455,207.935086 202.24681,210.301045 Z" id="Path" fill="#8557E6" fill-rule="nonzero"></path>
    </g>
</svg>